<?xml version="1.0" encoding="UTF-8"?>
<svg id="_Слой_1" data-name="Слой 1" xmlns="http://www.w3.org/2000/svg" viewBox="0 0 2000 2000">
  <defs>
    <style>
      .cls-1 {
        fill: #0e0c10;
      }
    </style>
  </defs>
  <path class="cls-1" d="M959.95,730.55l728.77-283.58-99.29,138.56c-60.35,84.22-143.89,149.06-240.45,186.63l-567.6,220.86,43.3-122.8c22.58-64.04,71.98-115.05,135.26-139.67Z"/>
  <path class="cls-1" d="M621.04,813.43h0s-88.45,34.42-88.45,34.42c-99.22,38.61-211.89,1.57-268.86-88.37h0s215.16-83.72,215.16-83.72c86.76-33.76,173.11,49.88,142.15,137.67Z"/>
  <path class="cls-1" d="M1814.26,639.73l-99.29,138.55c-60.35,84.21-143.89,149.05-240.44,186.62l-144.15,56.09-176.56,68.7-471.18,183.32-252.81,98.37c-104.28,40.58-208.09-59.96-170.88-165.49l82.8-234.8,259.25-100.87-98.75,280.01,259.25-100.87,647.75-252.04,405-157.58Z"/>
  <polygon class="cls-1" points="1153.82 1089.69 682.63 1273.03 682.64 1273.01 1153.82 1089.69"/>
  <path class="cls-1" d="M1208.56,1116.98l-99.29,138.56c-60.35,84.21-143.89,149.06-240.45,186.63l-284.93,110.87,78.88-223.68,545.79-212.38Z"/>
</svg>