<?xml version="1.0" encoding="UTF-8"?>
<svg id="_Слой_2" data-name="Слой 2" xmlns="http://www.w3.org/2000/svg" viewBox="0 0 2000 2000">
  <defs>
    <style>
      .cls-1 {
        fill: #223a89;
      }
    </style>
  </defs>
  <g>
    <path class="cls-1" d="M388.75,1292.05h30.12v147.24h-30.12v-147.24Z"/>
    <path class="cls-1" d="M539.78,1338.56c7.43,8.11,11.16,18.85,11.16,32.23v68.49h-29.89v-64.47c0-6.39-1.9-11.56-5.69-15.5-3.79-3.94-8.74-5.91-14.83-5.91s-11.12,1.98-15.06,5.91c-3.94,3.94-5.91,9.11-5.91,15.5v64.47h-30.12v-110.43h27.66v10.04c3.87-3.87,8.59-6.92,14.17-9.15,5.58-2.23,11.63-3.35,18.18-3.35,12.79,0,22.9,4.06,30.34,12.16Z"/>
    <path class="cls-1" d="M589.3,1436.28c-7.88-3.79-14.35-9.03-19.41-15.73l15.17-18.29c9.67,9.96,20,14.95,31.01,14.95,4.02,0,7.36-.78,10.04-2.34,2.68-1.56,4.02-3.83,4.02-6.8,0-2.38-.86-4.2-2.57-5.47-1.71-1.26-4.65-2.79-8.81-4.58l-11.82-4.91c-10.12-4.16-17.66-8.78-22.64-13.83-4.98-5.05-7.47-11.67-7.47-19.85,0-10.41,3.75-18.52,11.27-24.32,7.51-5.8,17.29-8.7,29.33-8.7,16.51,0,29.75,5.51,39.71,16.51l-15.17,18.52c-7.44-6.99-15.69-10.49-24.76-10.49-3.72,0-6.62.67-8.7,2.01-2.08,1.34-3.12,3.27-3.12,5.8,0,2.08.85,3.79,2.57,5.13,1.71,1.34,4.72,2.9,9.04,4.69l10.71,4.46c10.71,4.31,18.55,8.96,23.54,13.94,4.98,4.98,7.47,11.56,7.47,19.74,0,11.01-4.05,19.63-12.16,25.88-8.11,6.25-18.4,9.37-30.9,9.37-9.67,0-18.44-1.89-26.33-5.69Z"/>
    <path class="cls-1" d="M752.38,1414.08v25.21c-7.14,1.79-14.05,2.68-20.75,2.68-13.98,0-24.84-3.45-32.57-10.37-7.74-6.92-11.6-17.29-11.6-31.12v-46.18h-17.4v-25.44h17.4v-27.89h30.12v27.89h31.23v25.44h-31.23v43.5c0,6.25,1.63,10.67,4.91,13.27,3.27,2.6,8.48,3.91,15.62,3.91,1.78,0,6.54-.3,14.28-.9Z"/>
    <path class="cls-1" d="M789.19,1307.22c-5.36,0-9.89-1.79-13.61-5.36-3.72-3.57-5.58-7.95-5.58-13.16s1.86-9.82,5.58-13.39c3.72-3.57,8.26-5.35,13.61-5.35s9.93,1.79,13.72,5.35c3.79,3.57,5.69,8.03,5.69,13.39s-1.9,9.59-5.69,13.16c-3.79,3.57-8.37,5.36-13.72,5.36ZM774.24,1328.86h30.12v110.43h-30.12v-110.43Z"/>
    <path class="cls-1" d="M905.19,1414.08v25.21c-7.14,1.79-14.05,2.68-20.75,2.68-13.98,0-24.84-3.45-32.57-10.37-7.74-6.92-11.6-17.29-11.6-31.12v-46.18h-17.4v-25.44h17.4v-27.89h30.12v27.89h31.23v25.44h-31.23v43.5c0,6.25,1.63,10.67,4.91,13.27,3.27,2.6,8.48,3.91,15.62,3.91,1.78,0,6.54-.3,14.28-.9Z"/>
    <path class="cls-1" d="M950.81,1435.61c-7.81-4.24-13.91-10.22-18.29-17.96-4.39-7.73-6.58-16.73-6.58-26.99v-61.8h30.12v64.25c0,6.4,1.97,11.53,5.91,15.39,3.94,3.87,8.96,5.8,15.06,5.8s10.67-1.93,14.61-5.8c3.94-3.87,5.91-9,5.91-15.39v-64.25h30.12v61.8c0,10.26-2.2,19.26-6.58,26.99-4.39,7.74-10.45,13.72-18.18,17.96-7.74,4.24-16.36,6.36-25.88,6.36s-18.4-2.12-26.21-6.36Z"/>
    <path class="cls-1" d="M1127.38,1414.08v25.21c-7.14,1.79-14.05,2.68-20.75,2.68-13.98,0-24.84-3.45-32.57-10.37-7.74-6.92-11.6-17.29-11.6-31.12v-46.18h-17.4v-25.44h17.4v-27.89h30.12v27.89h31.23v25.44h-31.23v43.5c0,6.25,1.63,10.67,4.91,13.27,3.27,2.6,8.48,3.91,15.62,3.91,1.78,0,6.54-.3,14.28-.9Z"/>
    <path class="cls-1" d="M1248.52,1394.22h-77.41c1.78,6.99,5.39,12.38,10.82,16.18,5.43,3.79,12.16,5.69,20.19,5.69,10.85,0,21.12-3.72,30.79-11.15l12.49,20.53c-13.09,11.01-27.81,16.51-44.17,16.51-11.45,0-21.79-2.53-31.01-7.58-9.22-5.05-16.44-12.01-21.64-20.86-5.21-8.85-7.81-18.63-7.81-29.34s2.53-20.48,7.58-29.34c5.05-8.85,12.01-15.8,20.86-20.86,8.85-5.05,18.63-7.59,29.34-7.59,10.11,0,19.11,2.27,26.99,6.8,7.88,4.54,14.02,10.71,18.4,18.52,4.38,7.81,6.58,16.47,6.58,25.99,0,5.35-.67,10.86-2.01,16.51ZM1180.7,1356.74c-4.76,4.02-7.96,9.45-9.59,16.29h50.19c-.15-6.84-2.53-12.27-7.14-16.29-4.61-4.01-10.19-6.02-16.73-6.02s-11.97,2.01-16.73,6.02Z"/>
    <path class="cls-1" d="M1376.57,1300.19c-3.27,2.6-4.91,7.03-4.91,13.27v15.39h24.32v25.44h-24.32v84.99h-30.12v-84.99h-15.62v-25.44h15.62v-18.07c0-13.83,3.79-24.21,11.38-31.12,7.59-6.92,17.99-10.38,31.23-10.38,5.8,0,11.3.82,16.51,2.45v25.21c-3.27-.45-6.25-.67-8.92-.67-6.84,0-11.9,1.3-15.17,3.9Z"/>
    <path class="cls-1" d="M1465.36,1441.74c-10.86,0-20.79-2.56-29.78-7.69-9-5.13-16.1-12.12-21.31-20.97-5.21-8.85-7.81-18.55-7.81-29.11s2.6-20.26,7.81-29.12c5.2-8.85,12.34-15.8,21.42-20.86,9.07-5.05,19.04-7.59,29.89-7.59s20.82,2.57,29.89,7.7c9.07,5.13,16.25,12.08,21.53,20.86,5.28,8.78,7.92,18.44,7.92,29s-2.64,20.26-7.92,29.11c-5.28,8.85-12.49,15.84-21.64,20.97-9.15,5.13-19.15,7.69-30.01,7.69ZM1485.99,1405.6c5.43-5.65,8.14-12.79,8.14-21.42s-2.72-15.84-8.14-21.64c-5.43-5.8-12.23-8.7-20.41-8.7s-15.17,2.87-20.53,8.59c-5.35,5.73-8.03,12.98-8.03,21.75s2.68,15.76,8.03,21.42c5.36,5.66,12.2,8.48,20.53,8.48s14.98-2.82,20.41-8.48Z"/>
    <path class="cls-1" d="M1616.16,1328.86v26.55h-8.03c-9.07,0-16.28,2.42-21.64,7.25-5.35,4.83-8.03,12.01-8.03,21.53v55.1h-30.12v-110.43h27.66v13.17c3.72-4.61,8.18-8.18,13.38-10.71,5.21-2.53,10.85-3.79,16.96-3.79,3.72,0,6.99.45,9.82,1.34Z"/>
    <path class="cls-1" d="M102.97,1534.82h99.05v27.22h-68.93v29.89h50.64v25.66h-50.64v37.26h71.61v27.22h-101.73v-147.24Z"/>
    <path class="cls-1" d="M319.14,1581.34c7.43,8.11,11.16,18.85,11.16,32.24v68.49h-29.89v-64.47c0-6.39-1.9-11.56-5.69-15.51-3.79-3.94-8.74-5.91-14.83-5.91s-11.12,1.97-15.06,5.91c-3.94,3.94-5.91,9.11-5.91,15.51v64.47h-30.12v-110.43h27.66v10.04c3.87-3.87,8.59-6.91,14.17-9.15,5.58-2.23,11.63-3.35,18.18-3.35,12.79,0,22.9,4.06,30.34,12.16Z"/>
    <path class="cls-1" d="M430.24,1656.85v25.21c-7.14,1.79-14.05,2.68-20.75,2.68-13.98,0-24.84-3.46-32.57-10.38-7.74-6.91-11.6-17.29-11.6-31.12v-46.18h-17.4v-25.43h17.4v-27.89h30.12v27.89h31.23v25.43h-31.23v43.5c0,6.25,1.63,10.67,4.91,13.28,3.27,2.6,8.48,3.9,15.62,3.9,1.78,0,6.54-.29,14.28-.89Z"/>
    <path class="cls-1" d="M519.92,1571.63v26.55h-8.03c-9.07,0-16.28,2.42-21.64,7.25-5.35,4.83-8.03,12.01-8.03,21.52v55.11h-30.12v-110.43h27.66v13.16c3.72-4.61,8.18-8.18,13.38-10.71,5.21-2.53,10.85-3.79,16.96-3.79,3.72,0,6.99.44,9.82,1.34Z"/>
    <path class="cls-1" d="M637.93,1637h-77.41c1.78,6.99,5.39,12.38,10.82,16.18,5.43,3.79,12.16,5.69,20.19,5.69,10.85,0,21.12-3.72,30.79-11.15l12.49,20.52c-13.09,11.01-27.81,16.51-44.17,16.51-11.45,0-21.79-2.53-31.01-7.59-9.22-5.05-16.44-12.01-21.64-20.86-5.21-8.85-7.81-18.63-7.81-29.34s2.53-20.48,7.58-29.34c5.05-8.84,12.01-15.8,20.86-20.86,8.85-5.05,18.63-7.59,29.34-7.59,10.11,0,19.11,2.27,26.99,6.8,7.88,4.54,14.02,10.71,18.4,18.52,4.38,7.81,6.58,16.47,6.58,25.99,0,5.36-.67,10.86-2.01,16.51ZM570.11,1599.52c-4.76,4.01-7.96,9.44-9.59,16.28h50.19c-.15-6.84-2.53-12.27-7.14-16.28-4.61-4.01-10.19-6.02-16.73-6.02s-11.97,2.01-16.73,6.02Z"/>
    <path class="cls-1" d="M754.05,1576.65c8.1,4.99,14.46,11.82,19.07,20.53,4.61,8.7,6.92,18.55,6.92,29.56s-2.31,20.9-6.92,29.67c-4.61,8.78-10.97,15.69-19.07,20.75-8.11,5.05-17.29,7.59-27.55,7.59-6.69,0-12.87-1.15-18.52-3.46-5.66-2.31-10.49-5.61-14.5-9.93v50.87h-30.12v-150.58h27.66v13.83c3.72-5.2,8.66-9.22,14.84-12.05,6.17-2.82,13.05-4.24,20.64-4.24,10.26,0,19.44,2.49,27.55,7.47ZM741.22,1648.93c5.5-5.58,8.26-12.9,8.26-21.98s-2.71-16.62-8.14-22.19c-5.43-5.58-12.24-8.37-20.41-8.37-7.59,0-14.13,2.57-19.63,7.69-5.5,5.13-8.26,12.68-8.26,22.65s2.71,17.37,8.14,22.65c5.43,5.28,12.01,7.92,19.75,7.92s14.8-2.78,20.3-8.36Z"/>
    <path class="cls-1" d="M871.5,1571.63v26.55h-8.03c-9.07,0-16.28,2.42-21.64,7.25-5.35,4.83-8.03,12.01-8.03,21.52v55.11h-30.12v-110.43h27.66v13.16c3.72-4.61,8.18-8.18,13.38-10.71,5.21-2.53,10.85-3.79,16.96-3.79,3.72,0,6.99.44,9.82,1.34Z"/>
    <path class="cls-1" d="M989.52,1637h-77.41c1.78,6.99,5.39,12.38,10.82,16.18,5.43,3.79,12.16,5.69,20.19,5.69,10.85,0,21.12-3.72,30.79-11.15l12.49,20.52c-13.09,11.01-27.81,16.51-44.17,16.51-11.45,0-21.79-2.53-31.01-7.59-9.22-5.05-16.44-12.01-21.64-20.86-5.21-8.85-7.81-18.63-7.81-29.34s2.53-20.48,7.58-29.34c5.05-8.84,12.01-15.8,20.86-20.86,8.85-5.05,18.63-7.59,29.34-7.59,10.11,0,19.11,2.27,26.99,6.8,7.88,4.54,14.02,10.71,18.4,18.52,4.38,7.81,6.58,16.47,6.58,25.99,0,5.36-.67,10.86-2.01,16.51ZM921.7,1599.52c-4.76,4.01-7.96,9.44-9.59,16.28h50.19c-.15-6.84-2.53-12.27-7.14-16.28-4.61-4.01-10.19-6.02-16.73-6.02s-11.97,2.01-16.73,6.02Z"/>
    <path class="cls-1" d="M1105.3,1581.34c7.43,8.11,11.16,18.85,11.16,32.24v68.49h-29.89v-64.47c0-6.39-1.9-11.56-5.69-15.51-3.79-3.94-8.74-5.91-14.83-5.91s-11.12,1.97-15.06,5.91c-3.94,3.94-5.91,9.11-5.91,15.51v64.47h-30.12v-110.43h27.66v10.04c3.87-3.87,8.59-6.91,14.17-9.15,5.58-2.23,11.63-3.35,18.18-3.35,12.79,0,22.9,4.06,30.34,12.16Z"/>
    <path class="cls-1" d="M1246.96,1637h-77.41c1.78,6.99,5.39,12.38,10.82,16.18,5.43,3.79,12.16,5.69,20.19,5.69,10.85,0,21.12-3.72,30.79-11.15l12.49,20.52c-13.09,11.01-27.81,16.51-44.17,16.51-11.45,0-21.79-2.53-31.01-7.59-9.22-5.05-16.44-12.01-21.64-20.86-5.21-8.85-7.81-18.63-7.81-29.34s2.53-20.48,7.58-29.34c5.05-8.84,12.01-15.8,20.86-20.86,8.85-5.05,18.63-7.59,29.34-7.59,10.11,0,19.11,2.27,26.99,6.8,7.88,4.54,14.02,10.71,18.4,18.52,4.38,7.81,6.58,16.47,6.58,25.99,0,5.36-.67,10.86-2.01,16.51ZM1179.14,1599.52c-4.76,4.01-7.96,9.44-9.59,16.28h50.19c-.15-6.84-2.53-12.27-7.14-16.28-4.61-4.01-10.19-6.02-16.73-6.02s-11.97,2.01-16.73,6.02Z"/>
    <path class="cls-1" d="M1296.15,1678.38c-7.81-4.24-13.91-10.23-18.29-17.96-4.39-7.73-6.58-16.73-6.58-26.99v-61.79h30.12v64.25c0,6.4,1.97,11.53,5.91,15.39,3.94,3.87,8.96,5.8,15.06,5.8s10.67-1.93,14.61-5.8c3.94-3.87,5.91-9,5.91-15.39v-64.25h30.12v61.79c0,10.26-2.2,19.26-6.58,26.99-4.39,7.74-10.45,13.72-18.18,17.96-7.74,4.24-16.36,6.36-25.88,6.36s-18.4-2.12-26.21-6.36Z"/>
    <path class="cls-1" d="M1469.59,1571.63v26.55h-8.03c-9.07,0-16.28,2.42-21.64,7.25-5.35,4.83-8.03,12.01-8.03,21.52v55.11h-30.12v-110.43h27.66v13.16c3.72-4.61,8.18-8.18,13.38-10.71,5.21-2.53,10.85-3.79,16.96-3.79,3.72,0,6.99.44,9.82,1.34Z"/>
    <path class="cls-1" d="M1497.7,1679.05c-7.88-3.79-14.35-9.04-19.41-15.73l15.17-18.3c9.67,9.97,20,14.95,31.01,14.95,4.02,0,7.36-.78,10.04-2.35,2.68-1.56,4.02-3.82,4.02-6.8,0-2.37-.86-4.2-2.57-5.47-1.71-1.26-4.65-2.78-8.81-4.57l-11.82-4.91c-10.12-4.16-17.66-8.77-22.64-13.83-4.98-5.05-7.47-11.67-7.47-19.86,0-10.41,3.75-18.52,11.27-24.32,7.51-5.8,17.29-8.7,29.33-8.7,16.51,0,29.75,5.5,39.71,16.51l-15.17,18.52c-7.44-6.99-15.69-10.48-24.76-10.48-3.72,0-6.62.67-8.7,2.01-2.08,1.34-3.12,3.27-3.12,5.8,0,2.08.85,3.79,2.57,5.13,1.71,1.34,4.72,2.9,9.04,4.68l10.71,4.46c10.71,4.32,18.55,8.96,23.54,13.94,4.98,4.99,7.47,11.56,7.47,19.74,0,11.01-4.05,19.63-12.16,25.88-8.11,6.25-18.4,9.37-30.9,9.37-9.67,0-18.44-1.9-26.33-5.69Z"/>
    <path class="cls-1" d="M1680.19,1581.34c7.43,8.11,11.16,18.85,11.16,32.24v68.49h-29.89v-64.25c0-6.39-1.9-11.56-5.69-15.5-3.79-3.94-8.74-5.91-14.83-5.91s-11.12,1.97-15.06,5.91c-3.94,3.94-5.91,9.11-5.91,15.5v64.25h-30.12v-167.32h30.12v66.25c3.71-3.72,8.18-6.61,13.38-8.7,5.2-2.08,10.85-3.12,16.96-3.12,12.49,0,22.45,4.06,29.89,12.16Z"/>
    <path class="cls-1" d="M1735.29,1549.99c-5.36,0-9.89-1.79-13.61-5.35-3.72-3.57-5.58-7.96-5.58-13.16s1.86-9.82,5.58-13.39c3.72-3.57,8.26-5.35,13.61-5.35s9.93,1.78,13.72,5.35c3.79,3.57,5.69,8.03,5.69,13.39s-1.9,9.59-5.69,13.16c-3.79,3.57-8.37,5.35-13.72,5.35ZM1720.34,1571.63h30.12v110.43h-30.12v-110.43Z"/>
    <path class="cls-1" d="M1871.04,1576.65c8.1,4.99,14.46,11.82,19.07,20.53,4.61,8.7,6.92,18.55,6.92,29.56s-2.31,20.9-6.92,29.67c-4.61,8.78-10.97,15.69-19.07,20.75-8.11,5.05-17.29,7.59-27.55,7.59-6.69,0-12.87-1.15-18.52-3.46-5.66-2.31-10.49-5.61-14.5-9.93v50.87h-30.12v-150.58h27.66v13.83c3.72-5.2,8.66-9.22,14.84-12.05,6.17-2.82,13.05-4.24,20.64-4.24,10.26,0,19.44,2.49,27.55,7.47ZM1858.21,1648.93c5.5-5.58,8.26-12.9,8.26-21.98s-2.71-16.62-8.14-22.19c-5.43-5.58-12.24-8.37-20.41-8.37-7.59,0-14.13,2.57-19.63,7.69-5.5,5.13-8.26,12.68-8.26,22.65s2.71,17.37,8.14,22.65c5.43,5.28,12.01,7.92,19.75,7.92s14.8-2.78,20.3-8.36Z"/>
  </g>
  <g>
    <path class="cls-1" d="M1124.1,495.36l559.17-217.58-76.18,106.31c-46.3,64.62-110.4,114.37-184.49,143.19l-435.5,169.46,33.23-94.22c17.33-49.14,55.23-88.27,103.78-107.17Z"/>
    <path class="cls-1" d="M864.07,558.95h0s-67.87,26.41-67.87,26.41c-76.13,29.62-162.58,1.21-206.29-67.8h0s165.09-64.23,165.09-64.23c66.57-25.9,132.83,38.27,109.07,105.63Z"/>
    <path class="cls-1" d="M1779.59,425.68l-76.18,106.3c-46.3,64.61-110.4,114.36-184.48,143.19l-110.6,43.04-135.47,52.71-361.52,140.66-193.97,75.47c-80.01,31.13-159.66-46-131.11-126.97l63.53-180.16,198.91-77.4-75.77,214.84,198.91-77.4,496.99-193.38,310.74-120.91Z"/>
    <polygon class="cls-1" points="1272.86 770.92 911.33 911.59 911.33 911.58 1272.86 770.92"/>
    <path class="cls-1" d="M1314.85,791.86l-76.18,106.31c-46.3,64.62-110.4,114.37-184.49,143.19l-218.62,85.07,60.52-171.62,418.77-162.95Z"/>
  </g>
</svg>